<svg width="37" height="37" viewBox="0 0 37 37" fill="none" xmlns="http://www.w3.org/2000/svg">
<g id="Icon_Members">
<path id="Path" fill-rule="evenodd" clip-rule="evenodd" d="M13.0095 18.0252C9.43074 18.0252 6.52954 15.124 6.52954 11.5452C6.52954 7.96638 9.43074 5.06519 13.0095 5.06519C16.5883 5.06519 19.4895 7.96638 19.4895 11.5452C19.4895 15.124 16.5883 18.0252 13.0095 18.0252ZM13.0095 19.4651C18.9742 19.4651 23.8095 24.3004 23.8095 30.2651V33.1451C23.8095 33.5427 23.4872 33.8651 23.0895 33.8651H2.92953C2.53189 33.8651 2.20953 33.5427 2.20953 33.1451V30.2651C2.20953 24.3004 7.04486 19.4651 13.0095 19.4651Z" fill="white"/>
<path id="Path_2" fill-rule="evenodd" clip-rule="evenodd" d="M23.3775 18.3131C22.7719 18.3131 22.3695 17.8605 22.3695 17.3051C22.3695 16.7498 22.7719 16.2971 23.3775 16.2971H26.4015V13.2731C26.4015 12.6675 26.8542 12.2651 27.4095 12.2651C27.9648 12.2651 28.4175 12.6675 28.4175 13.2731V16.2971H31.4415C32.0471 16.2971 32.4495 16.7498 32.4495 17.3051C32.4495 17.8605 32.0471 18.3131 31.4415 18.3131H28.4175V21.3371C28.4175 21.9428 27.9648 22.3451 27.4095 22.3451C26.8542 22.3451 26.4015 21.9428 26.4015 21.3371V18.3131H23.3775Z" fill="white"/>
</g>
</svg>
