<svg width="447" height="365" viewBox="0 0 447 365" fill="none" xmlns="http://www.w3.org/2000/svg">
<path d="M0.350796 345.21L35.7173 114.828C36.5681 109.285 40.1654 104.55 45.2765 102.244L267.026 2.21052C274.852 -1.31982 284.078 1.71572 288.279 9.20304L444.066 286.867C449.812 297.108 443.37 309.909 431.722 311.397L18.8187 364.15C7.8972 365.545 -1.31984 356.092 0.350796 345.21Z" fill="#F0F2FF"/>
<path d="M0.350796 345.21L35.7173 114.828C36.5681 109.285 40.1654 104.55 45.2765 102.244L267.026 2.21052C274.852 -1.31982 284.078 1.71572 288.279 9.20304L444.066 286.867C449.812 297.108 443.37 309.909 431.722 311.397L18.8187 364.15C7.8972 365.545 -1.31984 356.092 0.350796 345.21Z" fill="#E8EFF6"/>
</svg>
