<svg width="41" height="40" viewBox="0 0 41 40" fill="none" xmlns="http://www.w3.org/2000/svg">
<path d="M3.69168 15.6982C4.05987 15.6982 4.35834 15.4072 4.35834 15.0482C4.35834 14.3303 4.9553 13.7482 5.69168 13.7482C6.05987 13.7482 6.35834 13.4572 6.35834 13.0982C6.35834 12.7393 6.05987 12.4482 5.69168 12.4482C4.21892 12.4482 3.02501 13.6123 3.02501 15.0482C3.02501 15.4072 3.32349 15.6982 3.69168 15.6982Z" fill="white"/>
<path d="M13.2673 19.3413L20.4626 20.7206C20.9832 20.8204 21.5232 20.7145 21.9637 20.4261C22.4042 20.1376 22.7091 19.6903 22.8113 19.1827L23.4253 16.153C23.5275 15.6454 23.4186 15.119 23.1227 14.6896C22.8267 14.2603 22.3679 13.9632 21.8473 13.8637L14.6506 12.4851C14.13 12.385 13.5899 12.4908 13.1492 12.7791C12.7086 13.0674 12.4036 13.5146 12.3013 14.0223L11.6919 17.052C11.479 18.1082 12.1841 19.1329 13.2673 19.3413ZM13.6099 14.2713C13.6426 14.1013 13.744 13.9512 13.8913 13.8549C14.0387 13.7585 14.2196 13.724 14.3933 13.7591L21.5879 15.1371C21.7615 15.1702 21.9144 15.2693 22.0131 15.4124C22.1117 15.5555 22.148 15.731 22.1139 15.9002L21.5033 18.9305C21.4321 19.2826 21.0818 19.5119 20.7206 19.4427L13.5246 18.0653C13.1635 17.996 12.9283 17.6544 12.9993 17.3022L13.6099 14.2713Z" fill="white"/>
<path d="M18.6918 23.9219C16.2986 23.9219 14.3585 25.8135 14.3585 28.1469C14.3585 30.4803 16.2986 32.3719 18.6918 32.3719C21.085 32.3719 23.0251 30.4803 23.0251 28.1469C23.0222 25.8147 21.0838 23.9247 18.6918 23.9219ZM18.6918 31.0719C17.035 31.0719 15.6918 29.7623 15.6918 28.1469C15.6918 26.5314 17.035 25.2219 18.6918 25.2219C20.3487 25.2219 21.6918 26.5314 21.6918 28.1469C21.6918 29.7623 20.3487 31.0719 18.6918 31.0719Z" fill="white"/>
<path d="M7.82054 25.8719H12.8965C13.4357 25.8759 13.9335 25.5904 14.1919 25.129C14.4374 24.6917 14.4117 24.1574 14.1252 23.7445L11.5872 20.007C11.3106 19.6098 10.8502 19.3721 10.3579 19.3721C9.86553 19.3721 9.40514 19.6098 9.12854 20.007L6.59121 23.7451C6.30486 24.1578 6.27913 24.6919 6.52454 25.129C6.78307 25.5906 7.28111 25.8761 7.82054 25.8719ZM10.2412 20.7239C10.2707 20.6908 10.3135 20.6717 10.3585 20.6717C10.4036 20.6717 10.4464 20.6908 10.4759 20.7239L13.0172 24.5128C12.992 24.5534 12.945 24.5761 12.8965 24.5713H7.82054C7.7894 24.5748 7.75824 24.5647 7.73556 24.5436C7.71287 24.5224 7.70101 24.4926 7.70321 24.4621L10.2412 20.7239Z" fill="white"/>
<path d="M6.02522 39.748C8.24949 39.7448 10.2664 38.4739 11.1832 36.498H28.4786L28.8239 38.1802C29.0127 39.0908 29.8325 39.7461 30.7852 39.748H34.5986C35.5508 39.7455 36.3699 39.0903 36.5586 38.1802L36.9052 36.498H37.6919C39.1646 36.498 40.3586 35.334 40.3586 33.898V15.048C40.3552 12.1775 37.9694 9.85127 35.0252 9.84805H31.2099L30.4766 8.06835C30.3359 7.72419 30.05 7.45583 29.6919 7.3319V6.59805C29.6882 3.36867 27.0041 0.751629 23.6919 0.748047H17.0252C13.713 0.751629 11.0289 3.36867 11.0252 6.59805V7.3319C10.6669 7.45456 10.3804 7.72207 10.2392 8.06575L9.50722 9.84805H5.69188C2.74774 9.85127 0.361858 12.1775 0.358551 15.048V33.898C0.358551 33.9474 0.363218 34.0014 0.367218 34.0547C0.371218 34.108 0.358551 34.1658 0.358551 34.223C0.362225 37.2729 2.89713 39.7445 6.02522 39.748ZM6.02522 38.448C4.13367 38.4541 2.45519 37.2669 1.87394 35.5119C1.29268 33.7569 1.94206 31.8368 3.48001 30.7631C5.01796 29.6894 7.09147 29.7086 8.6083 30.8105C10.1251 31.9123 10.7371 33.8441 10.1219 35.588C10.1219 35.5939 10.1172 35.6004 10.1146 35.6069C9.50945 37.3052 7.86917 38.4448 6.02522 38.448ZM35.2526 37.928C35.1891 38.231 34.9156 38.4484 34.5986 38.448H30.7852C30.4681 38.4484 30.1946 38.231 30.1312 37.928L29.8386 36.498H35.5452L35.2526 37.928ZM39.0252 15.048V18.948H38.3586C36.8858 18.948 35.6919 17.784 35.6919 16.348V11.2065C37.6141 11.525 39.0216 13.147 39.0252 15.048ZM17.2099 9.84805L16.4766 8.06835C16.3359 7.72419 16.05 7.45583 15.6919 7.3319V6.59805C15.6919 5.88008 16.2888 5.29805 17.0252 5.29805H23.6919C24.4283 5.29805 25.0252 5.88008 25.0252 6.59805V7.3319C24.6669 7.45456 24.3804 7.72207 24.2392 8.06575L23.5072 9.84805H17.2099ZM25.4766 8.54805H29.2372L29.7706 9.84805H24.9446L25.4766 8.54805ZM17.0252 2.04805H23.6919C26.268 2.05091 28.3556 4.08634 28.3586 6.59805V7.24805H26.3586V6.59805C26.3586 5.16211 25.1646 3.99805 23.6919 3.99805H17.0252C15.5525 3.99805 14.3586 5.16211 14.3586 6.59805V7.24805H12.3586V6.59805C12.3615 4.08634 14.4491 2.05091 17.0252 2.04805ZM11.4786 8.54805H15.2392L15.7726 9.84805H10.9446L11.4786 8.54805ZM1.69188 15.048C1.69409 12.895 3.48366 11.1502 5.69188 11.148H34.3586V16.348C34.3608 18.5011 36.1503 20.2459 38.3586 20.248H39.0252V33.898C39.0252 34.616 38.4283 35.198 37.6919 35.198H11.5979C12.0541 32.7358 10.7542 30.2824 8.43058 29.2203C6.10698 28.1582 3.34126 28.7533 1.69188 30.6701V15.048Z" fill="white"/>
<path d="M6.02501 31.2979C4.36816 31.2979 3.02501 32.6074 3.02501 34.2229C3.02501 35.8383 4.36816 37.1479 6.02501 37.1479C7.68186 37.1479 9.02501 35.8383 9.02501 34.2229C9.02317 32.6082 7.6811 31.2996 6.02501 31.2979ZM6.02501 35.8479C5.10453 35.8479 4.35834 35.1203 4.35834 34.2229C4.35834 33.3254 5.10453 32.5979 6.02501 32.5979C6.94548 32.5979 7.69168 33.3254 7.69168 34.2229C7.69168 35.1203 6.94548 35.8479 6.02501 35.8479Z" fill="white"/>
<path d="M34.3585 33.8981H37.0252C37.3934 33.8981 37.6919 33.6071 37.6919 33.2481V29.9981C37.6919 29.6392 37.3934 29.3481 37.0252 29.3481C36.657 29.3481 36.3585 29.6392 36.3585 29.9981V32.5981H34.3585C33.9904 32.5981 33.6919 32.8892 33.6919 33.2481C33.6919 33.6071 33.9904 33.8981 34.3585 33.8981Z" fill="white"/>
</svg>
