<svg width="34" height="35" viewBox="0 0 34 35" fill="none" xmlns="http://www.w3.org/2000/svg">
<path d="M10.0843 23.5261C11.3509 23.2375 12.3115 22.3254 12.7001 21.2012H26.4857C28.1326 21.2012 29.6027 20.1279 30.0607 18.5912L33.3664 7.50023C33.6198 6.65004 33.4512 5.75654 32.9037 5.04898C32.3563 4.34136 31.5197 3.93555 30.6086 3.93555H22.5893C22.2117 3.93555 21.9057 4.23291 21.9057 4.59961C21.9057 4.9663 22.2117 5.26367 22.5893 5.26367H30.6086C31.0859 5.26367 31.5241 5.47624 31.8108 5.84692C32.0975 6.21753 32.1859 6.68556 32.0531 7.13088L28.7474 18.2219C28.4576 19.194 27.5276 19.873 26.4857 19.873H12.8818C12.8705 19.6896 12.8446 19.5048 12.8023 19.3201L9.57754 5.26367H16.4384C16.8159 5.26367 17.122 4.9663 17.122 4.59961C17.122 4.23291 16.8159 3.93555 16.4384 3.93555H9.27286L9.17545 3.51101C8.80221 1.88419 7.34328 0.748047 5.6276 0.748047H0.918457C0.540908 0.748047 0.234863 1.04541 0.234863 1.41211V4.33398C0.234863 4.70068 0.540908 4.99805 0.918457 4.99805H5.03437L8.38446 19.6014C6.51306 20.3212 5.25531 22.0816 5.25531 24.0826C5.25531 26.7412 7.48191 28.9042 10.2187 28.9042H12.0551C11.2629 29.502 10.7518 30.4354 10.7518 31.483C10.7518 33.2833 12.2595 34.748 14.1128 34.748C15.9661 34.748 17.4738 33.2833 17.4738 31.483C17.4738 30.4354 16.9627 29.502 16.1705 28.9042H23.7081C22.916 29.502 22.4048 30.4354 22.4048 31.483C22.4048 33.2833 23.9126 34.748 25.7659 34.748C27.6191 34.748 29.1269 33.2833 29.1269 31.483C29.1269 30.4354 28.6158 29.502 27.8236 28.9042H31.4068C31.7844 28.9042 32.0904 28.6069 32.0904 28.2402V25.3183C32.0904 24.9516 31.7844 24.6542 31.4068 24.6542H10.2188C9.89431 24.6542 9.63038 24.3978 9.63038 24.0826C9.63024 23.8159 9.81693 23.587 10.0843 23.5261ZM14.1128 33.4199C13.0134 33.4199 12.119 32.5511 12.119 31.4831C12.119 30.4151 13.0134 29.5462 14.1128 29.5462C15.2123 29.5462 16.1067 30.4151 16.1067 31.4831C16.1066 32.5511 15.2122 33.4199 14.1128 33.4199ZM25.7659 33.4199C24.6664 33.4199 23.772 32.5511 23.772 31.4831C23.772 30.4151 24.6664 29.5462 25.7659 29.5462C26.8653 29.5462 27.7597 30.4151 27.7597 31.4831C27.7596 32.5511 26.8652 33.4199 25.7659 33.4199ZM8.26306 24.0827C8.26306 25.1302 9.14031 25.9824 10.2187 25.9824H30.7231V27.5762H10.2187C8.23571 27.5762 6.62243 26.009 6.62243 24.0827C6.62243 22.4735 7.74469 21.0792 9.35161 20.6921C9.71193 20.6053 9.93506 20.2551 9.85433 19.9031L6.2496 4.18955C6.17994 3.88587 5.90261 3.66992 5.58241 3.66992H1.60205V2.07617H5.6276C6.69797 2.07617 7.60817 2.78506 7.84107 3.79995L11.4678 19.6089C11.7368 20.7816 10.9761 21.9587 9.77216 22.233C8.88362 22.4354 8.26306 23.196 8.26306 24.0827Z" fill="white"/>
<path d="M19.5132 5.26367C19.693 5.26367 19.8693 5.19262 19.9965 5.06904C20.1236 4.94559 20.1968 4.77426 20.1968 4.59961C20.1968 4.42496 20.1236 4.25363 19.9965 4.13012C19.8693 4.0066 19.693 3.93555 19.5132 3.93555C19.3334 3.93555 19.157 4.00654 19.0299 4.13012C18.9027 4.25363 18.8296 4.42496 18.8296 4.59961C18.8296 4.77426 18.9027 4.94559 19.0299 5.06904C19.157 5.19262 19.3334 5.26367 19.5132 5.26367Z" fill="white"/>
</svg>
