<svg width="42" height="42" viewBox="0 0 42 42" fill="none" xmlns="http://www.w3.org/2000/svg">
<path d="M21.0215 25.3908C26.3048 25.3908 30.5881 21.1077 30.5881 15.8242C30.5881 10.5409 26.3048 6.25781 21.0215 6.25781C15.7377 6.25781 11.4546 10.5409 11.4546 15.8242C11.4604 21.1056 15.7401 25.3853 21.0215 25.3908ZM21.0215 7.62437C25.5499 7.62437 29.2215 11.2956 29.2215 15.8242C29.2215 20.3531 25.5499 24.0242 21.0215 24.0242C16.4927 24.0242 12.8215 20.3531 12.8215 15.8242C12.8264 11.2977 16.4945 7.62916 21.0215 7.62437Z" fill="white"/>
<path d="M40.0246 29.4101C39.0931 28.8174 37.9225 28.7462 36.9259 29.221L29.0252 32.9637C29.3801 32.0189 29.2489 30.9608 28.6744 30.1314C28.1 29.3018 27.1555 28.8077 26.1468 28.8077H17.8815C14.8166 25.9391 10.2535 25.369 6.57653 27.3952L6.49483 27.4409H0.521759V28.8077H5.98849V40.4242H0.521759V41.7908H24.5511C26.8354 41.7901 29.0789 41.1877 31.0562 40.0436L39.9156 34.9147C40.8899 34.3506 41.4987 33.3183 41.5211 32.1931C41.5432 31.0675 40.9754 30.012 40.0246 29.4101ZM39.2312 33.7316L30.3715 38.8605C28.6026 39.8843 26.5951 40.4236 24.5511 40.4242H7.35522V28.5274C10.5763 26.8181 14.5347 27.4043 17.1217 29.9742C17.2501 30.1021 17.4238 30.1742 17.6049 30.1742H26.1468C27.0903 30.1742 27.8547 30.939 27.8547 31.8827C27.8547 32.8256 27.0903 33.5908 26.1468 33.5908H17.6049C17.2277 33.5908 16.9216 33.8967 16.9216 34.2741C16.9216 34.6518 17.2277 34.9577 17.6049 34.9577H27.8547C27.9563 34.9565 28.056 34.933 28.1473 34.8892L37.509 30.4536C38.4064 30.0271 39.4806 30.3851 39.9427 31.265C40.4043 32.1446 40.0893 33.2321 39.2289 33.7288L39.2312 33.7316Z" fill="white"/>
<path d="M15.5546 15.8243C15.5579 12.8067 18.0036 10.3612 21.0215 10.3579V8.99121C17.249 8.99515 14.1922 12.0522 14.1881 15.8243H15.5546Z" fill="white"/>
<path d="M21.0217 22.6577C24.7938 22.6534 27.8509 19.5964 27.8546 15.8242H26.4881C26.4848 18.8418 24.0391 21.2875 21.0217 21.291V22.6577Z" fill="white"/>
<path d="M7.24267 4.88155C8.35623 5.0674 9.22879 5.93978 9.41446 7.05368C9.46996 7.38239 9.75499 7.62288 10.0881 7.62288C10.4217 7.62288 10.7065 7.38239 10.7617 7.05368C10.9479 5.93978 11.8204 5.0674 12.9336 4.88155C13.2622 4.82571 13.5028 4.54102 13.5028 4.20769C13.5028 3.87402 13.2622 3.58934 12.9336 3.53367C11.8204 3.34782 10.9479 2.47492 10.7617 1.36136C10.7065 1.033 10.4217 0.791992 10.0881 0.791992C9.75499 0.791992 9.46996 1.033 9.41446 1.36136C9.22879 2.47492 8.35623 3.34782 7.24267 3.53367C6.91397 3.58934 6.67348 3.87402 6.67348 4.20769C6.67348 4.54102 6.91397 4.82571 7.24267 4.88155ZM10.0881 3.23168C10.3548 3.61092 10.6849 3.94099 11.064 4.20769C10.6849 4.47371 10.3548 4.8043 10.0881 5.18336C9.82162 4.8043 9.49155 4.47371 9.11214 4.20769C9.49155 3.94099 9.82162 3.61092 10.0881 3.23168Z" fill="white"/>
<path d="M31.8424 21.9646C32.9559 22.1504 33.8283 23.023 34.014 24.1367C34.0697 24.4654 34.3545 24.7059 34.6879 24.7059C35.0214 24.7059 35.3062 24.4654 35.3616 24.1367C35.5476 23.023 36.42 22.1504 37.5333 21.9646C37.8619 21.9085 38.1025 21.624 38.1025 21.2907C38.1025 20.957 37.8619 20.6723 37.5333 20.6168C36.42 20.4308 35.5476 19.5579 35.3616 18.4449C35.3062 18.1162 35.0214 17.875 34.6879 17.875C34.3545 17.875 34.0697 18.1162 34.014 18.4449C33.8283 19.5579 32.9559 20.4308 31.8424 20.6168C31.514 20.6723 31.2732 20.957 31.2732 21.2907C31.2732 21.624 31.514 21.9085 31.8424 21.9646ZM34.6879 20.3147C34.9546 20.6939 35.2846 21.024 35.6637 21.2907C35.2846 21.5569 34.9546 21.8873 34.6879 22.2664C34.4213 21.8873 34.0913 21.5569 33.7119 21.2907C34.0913 21.024 34.4213 20.6939 34.6879 20.3147Z" fill="white"/>
<path d="M20.3383 12.4081C19.2064 12.4081 18.2885 13.3258 18.2885 14.4579C18.2885 15.5899 19.2064 16.5079 20.3383 16.5079H21.705C22.0825 16.5079 22.3885 16.8136 22.3885 17.1912C22.3885 17.5689 22.0825 17.8744 21.705 17.8744H18.9717V19.2412H20.3383V19.9246H21.705V19.2412C22.8372 19.2412 23.755 18.3234 23.755 17.1912C23.755 16.0591 22.8372 15.1412 21.705 15.1412H20.3383C19.9609 15.1412 19.655 14.8352 19.655 14.4579C19.655 14.0805 19.9609 13.7746 20.3383 13.7746H23.0719V12.4081H21.705V11.7246H20.3383V12.4081Z" fill="white"/>
</svg>
