<svg width="43" height="43" viewBox="0 0 43 43" fill="none" xmlns="http://www.w3.org/2000/svg">
<path fill-rule="evenodd" clip-rule="evenodd" d="M25.3892 22.9287C21.3147 21.799 17.4767 21.8224 13.5334 22.9183C11.5526 23.468 10.2224 25.1397 10.2224 27.0776V28.1545C10.2224 28.6331 10.6356 29.0215 11.1468 29.0215H27.7851C28.2963 29.0215 28.7095 28.6331 28.7095 28.1545V27.0897C28.7095 25.1519 27.3756 23.4793 25.3892 22.9287Z" fill="white"/>
<path fill-rule="evenodd" clip-rule="evenodd" d="M20.0428 19.7771C22.971 19.7771 25.2423 16.4325 25.2423 13.5555C25.2423 10.6144 22.9103 8.22266 20.0428 8.22266C17.1753 8.22266 14.8433 10.6144 14.8433 13.5555C14.8433 16.4325 17.1146 19.7771 20.0428 19.7771Z" fill="white"/>
<path fill-rule="evenodd" clip-rule="evenodd" d="M35.8888 33.6436C35.112 34.5676 34.2556 35.4239 33.3313 36.2006L40.0173 42.8871L42.5748 40.3291L35.8888 33.6436Z" fill="white"/>
<path fill-rule="evenodd" clip-rule="evenodd" d="M20.0415 1.29102C30.5534 1.29102 39.1063 9.84293 39.1063 20.3558C39.1063 30.8687 30.5534 39.4206 20.0415 39.4206C9.52951 39.4206 0.976685 30.8687 0.976685 20.3558C0.976685 9.84293 9.52951 1.29102 20.0415 1.29102ZM2.79473 20.3548C2.79473 29.8663 10.5323 37.6039 20.0438 37.6039C29.5553 37.6039 37.2929 29.8663 37.2929 20.3548C37.2929 10.8432 29.5553 3.10566 20.0438 3.10566C10.5323 3.10566 2.79473 10.8432 2.79473 20.3548Z" fill="white"/>
<path d="M39.6063 20.3558C39.6063 9.56678 30.8296 0.791016 20.0415 0.791016V1.79102C30.2773 1.79102 38.6063 10.1191 38.6063 20.3558H39.6063ZM20.0415 39.9206C30.8296 39.9206 39.6063 31.1448 39.6063 20.3558H38.6063C38.6063 30.5925 30.2773 38.9206 20.0415 38.9206V39.9206ZM0.476685 20.3558C0.476685 31.1448 9.25338 39.9206 20.0415 39.9206V38.9206C9.80564 38.9206 1.47668 30.5925 1.47668 20.3558H0.476685ZM20.0415 0.791016C9.25338 0.791016 0.476685 9.56678 0.476685 20.3558H1.47668C1.47668 10.1191 9.80564 1.79102 20.0415 1.79102V0.791016ZM20.0438 37.1039C10.8085 37.1039 3.29473 29.5901 3.29473 20.3548H2.29473C2.29473 30.1424 10.2562 38.1039 20.0438 38.1039V37.1039ZM36.7929 20.3548C36.7929 29.5901 29.2792 37.1039 20.0438 37.1039V38.1039C29.8315 38.1039 37.7929 30.1424 37.7929 20.3548H36.7929ZM20.0438 3.60566C29.2792 3.60566 36.7929 11.1194 36.7929 20.3548H37.7929C37.7929 10.5671 29.8315 2.60566 20.0438 2.60566V3.60566ZM3.29473 20.3548C3.29473 11.1194 10.8085 3.60566 20.0438 3.60566V2.60566C10.2562 2.60566 2.29473 10.5671 2.29473 20.3548H3.29473Z" fill="white"/>
</svg>
