<svg id="Layer_1" data-name="Layer 1" xmlns="http://www.w3.org/2000/svg" xmlns:xlink="http://www.w3.org/1999/xlink" viewBox="0 0 1068.26 300.52" width="255"><defs><style>.cls-1{fill:none;}.cls-2{clip-path:url(#clip-path);}.cls-3{clip-path:url(#clip-path-2);}.cls-4{fill:url(#linear-gradient);}.cls-5{clip-path:url(#clip-path-3);}.cls-6{fill:url(#linear-gradient-2);}.cls-7{clip-path:url(#clip-path-4);}.cls-8{fill:url(#linear-gradient-3);}.cls-9{clip-path:url(#clip-path-5);}.cls-10{fill:url(#linear-gradient-4);}.cls-11{clip-path:url(#clip-path-6);}.cls-12{fill:url(#linear-gradient-5);}.cls-13{clip-path:url(#clip-path-7);}.cls-14{fill:url(#linear-gradient-6);}.cls-15{clip-path:url(#clip-path-8);}.cls-16{fill:url(#linear-gradient-7);}.cls-17{clip-path:url(#clip-path-9);}.cls-18{opacity:0.3;}.cls-19{clip-path:url(#clip-path-10);}.cls-20,.cls-23,.cls-26{fill-rule:evenodd;}.cls-21{opacity:0.4;}.cls-22{clip-path:url(#clip-path-11);}.cls-23{fill:#54caff;}.cls-24{opacity:0.1;}.cls-25{clip-path:url(#clip-path-12);}.cls-26{fill:#fff;}.cls-27{clip-path:url(#clip-path-13);}.cls-28{clip-path:url(#clip-path-14);}.cls-29{clip-path:url(#clip-path-15);}.cls-30{clip-path:url(#clip-path-16);}.cls-31{clip-path:url(#clip-path-17);}.cls-32{clip-path:url(#clip-path-18);}.cls-33{clip-path:url(#clip-path-19);}.cls-34{font-size:108.22px;font-family:Poppins-Bold, Poppins;font-weight:700;}.cls-34,.cls-37{fill:#18429e;}.cls-35{fill:#0b2e6b;}.cls-36{fill:#494949;}</style><clipPath id="clip-path"><rect class="cls-1" width="1068.26" height="300.52"/></clipPath><clipPath id="clip-path-2"><path class="cls-1" d="M109.44,140.41a16.2,16.2,0,1,0,16.2-16.2,16.23,16.23,0,0,0-16.2,16.2"/></clipPath><linearGradient id="linear-gradient" y1="300.52" x2="1" y2="300.52" gradientTransform="matrix(35.91, 0, 0, -35.91, 106.27, 10932.66)" gradientUnits="userSpaceOnUse"><stop offset="0" stop-color="#8bd0ca"/><stop offset="0.32" stop-color="#00aed2"/><stop offset="0.7" stop-color="#1272b9"/><stop offset="1" stop-color="#1d4899"/></linearGradient><clipPath id="clip-path-3"><path class="cls-1" d="M108.85,268.35a22.23,22.23,0,1,0,22.23-22.23,22.28,22.28,0,0,0-22.23,22.23"/></clipPath><linearGradient id="linear-gradient-2" y1="300.52" y2="300.52" gradientTransform="matrix(44.46, 0, 0, -44.46, 108.95, 13629.63)" xlink:href="#linear-gradient"/><clipPath id="clip-path-4"><path class="cls-1" d="M11.38,233a11.48,11.48,0,1,0,11.48-11.48A11.51,11.51,0,0,0,11.38,233"/></clipPath><linearGradient id="linear-gradient-3" y1="300.52" y2="300.52" gradientTransform="matrix(23.32, 0, 0, -23.32, 11.09, 7242.35)" xlink:href="#linear-gradient"/><clipPath id="clip-path-5"><path class="cls-1" d="M69.9,188.75c-56,30.13-11.88,83.18,25.41,54.8,34.1-25.94,59.13-35.27,84.07-36.26-21-16.38-44.13-29.17-69.63-29.17-12.7,0-26,3.17-39.85,10.64"/></clipPath><linearGradient id="linear-gradient-4" y1="300.41" y2="300.41" gradientTransform="matrix(121.83, 0, 0, -121.83, 41.18, 36825.01)" xlink:href="#linear-gradient"/><clipPath id="clip-path-6"><path class="cls-1" d="M249.32,115.54c34.43,1.73,51.69,52.87-13.27,87.28-7.67,4.67-18.53,7.21-32.07,5.85a139,139,0,0,0-24.61-1.39c6.47,5.06,12.73,10.45,18.78,15.92,53.54,48.37,121.78,4,110.79-55.33-4.67-25.2-30.34-52.43-56.77-52.43-1,0-1.9,0-2.85.11"/></clipPath><linearGradient id="linear-gradient-5" y1="300.48" x2="1" y2="300.48" gradientTransform="matrix(0, -126.12, -126.12, 0, 38147.54, 244.01)" gradientUnits="userSpaceOnUse"><stop offset="0" stop-color="#1d4899"/><stop offset="0.3" stop-color="#1272b9"/><stop offset="0.68" stop-color="#00aed2"/><stop offset="1" stop-color="#8bd0ca"/></linearGradient><clipPath id="clip-path-7"><path class="cls-1" d="M179.06,47.49c16.89-5.92,32.11,12.22,22.91,35.34-7.31,18.34-23.28,25.5-34,39.9q-21,28.18-1.44,33c6,1.49,14.87.29,24.46-.9,12.31-1.53,25.81-3.06,35.92,1.06,27.47,11.2,27.93,35.45,9.16,46.89,65-34.41,47.7-85.55,13.27-87.28a36.86,36.86,0,0,0-5.93.93c-11,2.68-30.37,5.55-26.46-10.44q4.38-17.93,6.31-31.15C225.3,56,211.85,44.46,194.68,44.46a43.55,43.55,0,0,0-15.62,3"/></clipPath><linearGradient id="linear-gradient-6" y1="300.45" y2="300.45" gradientTransform="matrix(111.05, 0, 0, -111.05, 132.02, 33487.94)" xlink:href="#linear-gradient"/><clipPath id="clip-path-8"><path class="cls-1" d="M142.2,25.88q-27.21,18.71-33.58,37c-13.73,39.49,31.94,54.67,43.53,17.6q4.51-14.39,16.71-26.39a27.82,27.82,0,0,1,10.19-6.63c23.68-9.13,46.85,3.06,44.19,27.4q2-13.9,1.36-22.59c-2.09-27-21.49-38.86-43.28-38.86A70.45,70.45,0,0,0,142.2,25.88"/></clipPath><linearGradient id="linear-gradient-7" y1="300.54" x2="1" y2="300.54" gradientTransform="matrix(135.21, 0, 0, -135.21, 99.32, 40700.22)" xlink:href="#linear-gradient-5"/><clipPath id="clip-path-9"><rect class="cls-1" width="1068.26" height="300.52"/></clipPath><clipPath id="clip-path-10"><rect class="cls-1" x="179.06" y="44.46" width="44.39" height="30.43"/></clipPath><clipPath id="clip-path-11"><rect class="cls-1" x="236.05" y="115.54" width="43.92" height="87.28"/></clipPath><clipPath id="clip-path-12"><rect class="cls-1" x="64.64" y="227" width="15.28" height="15.28"/></clipPath><clipPath id="clip-path-13"><rect class="cls-1" x="225.02" y="211.71" width="15.28" height="15.28"/></clipPath><clipPath id="clip-path-14"><rect class="cls-1" x="232.66" y="129.62" width="15.29" height="15.28"/></clipPath><clipPath id="clip-path-15"><rect class="cls-1" x="130.73" y="82.53" width="10.2" height="10.2"/></clipPath><clipPath id="clip-path-16"><rect class="cls-1" x="277.23" y="192.43" width="20.78" height="20.78"/></clipPath><clipPath id="clip-path-17"><rect class="cls-1" x="108.85" y="189.64" width="20.52" height="20.52"/></clipPath><clipPath id="clip-path-18"><rect class="cls-1" x="128.19" y="251.64" width="15.28" height="15.28"/></clipPath><clipPath id="clip-path-19"><rect class="cls-1" x="20.38" y="233.02" width="9.25" height="9.25"/></clipPath></defs><title>Artboard 1</title><g class="cls-2"><g class="cls-3"><rect class="cls-4" x="102.97" y="117.74" width="45.33" height="45.33" transform="translate(-59.01 102.92) rotate(-36.7)"/></g><g class="cls-5"><rect class="cls-6" x="102.39" y="239.67" width="57.38" height="57.38" transform="translate(-86.89 64.19) rotate(-20.84)"/></g><g class="cls-7"><rect class="cls-8" x="6.63" y="216.78" width="32.48" height="32.48" transform="translate(-155.69 81.56) rotate(-44.09)"/></g><g class="cls-9"><rect class="cls-10" x="1.99" y="148.43" width="189.33" height="153.18" transform="translate(-83.42 59.04) rotate(-24.09)"/></g><g class="cls-11"><rect class="cls-12" x="171.51" y="108.43" width="156.3" height="170.14" transform="translate(-19.08 27.51) rotate(-6.08)"/></g><g class="cls-13"><rect class="cls-14" x="120.13" y="13.58" width="214.24" height="217.23" transform="translate(-28.34 157.55) rotate(-36.14)"/></g><g class="cls-15"><rect class="cls-16" x="76.71" y="-16.05" width="167.37" height="163.13" transform="translate(-5.83 114.37) rotate(-38.6)"/></g><g class="cls-17"><g class="cls-18"><g class="cls-19"><path class="cls-20" d="M223.24,74.89c2.66-24.34-20.51-36.52-44.19-27.4A17.82,17.82,0,0,1,196.7,50.4q21.55-.71,26.55,24.48"/></g></g><g class="cls-21"><g class="cls-22"><path class="cls-20" d="M236.06,202.82c65-34.41,47.7-85.55,13.27-87.28,38.77,14.48,29.34,52.6-1.19,72.52-1.7,5.7-5.82,10.94-12.08,14.76"/></g></g><path class="cls-23" d="M186.11,207.21C161.95,188,135.59,169.81,98.18,179c30.12-4.62,57.11,9.46,81.2,28.29,6.47,5.06,12.73,10.45,18.78,15.92,22.21,20.06,46.94,24.16,67.51,17.87-31,8-54.07-13.56-79.55-33.87"/><g class="cls-24"><g class="cls-25"><path class="cls-26" d="M72.28,242.28a7.64,7.64,0,1,0-7.64-7.64,7.66,7.66,0,0,0,7.64,7.64"/></g></g><g class="cls-24"><g class="cls-27"><path class="cls-26" d="M232.66,227a7.64,7.64,0,1,0-7.64-7.64,7.66,7.66,0,0,0,7.64,7.64"/></g></g><g class="cls-24"><g class="cls-28"><path class="cls-26" d="M240.3,144.91a7.64,7.64,0,1,0-7.64-7.64,7.66,7.66,0,0,0,7.64,7.64"/></g></g><g class="cls-24"><g class="cls-29"><path class="cls-26" d="M135.83,92.73a5.1,5.1,0,1,0-5.1-5.1,5.11,5.11,0,0,0,5.1,5.1"/></g></g><g class="cls-24"><g class="cls-30"><path class="cls-26" d="M287.62,213.21a10.39,10.39,0,1,0-10.39-10.39,10.41,10.41,0,0,0,10.39,10.39"/></g></g><g class="cls-24"><g class="cls-31"><path class="cls-26" d="M119.11,210.16a10.26,10.26,0,1,0-10.26-10.26,10.28,10.28,0,0,0,10.26,10.26"/></g></g><g class="cls-24"><g class="cls-32"><path class="cls-26" d="M135.83,266.92a7.64,7.64,0,1,0-7.64-7.64,7.66,7.66,0,0,0,7.64,7.64"/></g></g><g class="cls-24"><g class="cls-33"><path class="cls-26" d="M25,242.27a4.62,4.62,0,1,0-4.62-4.62A4.63,4.63,0,0,0,25,242.27"/></g></g><text class="cls-34" transform="translate(407.1 130.37)">BLUE<tspan class="cls-35" x="274.66" y="0">FILTER</tspan></text></g><path class="cls-36" d="M587.86,222.55c0,13.91-11.35,24.65-25.78,24.65s-26.31-10.3-26.31-24.65V208.19h10.15v13.45c0,9.92,5.79,16.09,15.93,16.09,6.54,0,11.2-2.33,13.91-7.07a21.85,21.85,0,0,1-4.51.45c-10.15,0-16.69-6.31-16.69-16.46,0-10,6.39-16.39,16.39-16.39,10.3,0,16.91,6.16,16.91,16.16Zm-19.47-28h-8.87v-8.27h8.87ZM577.87,215c0-5.64-2.1-8.49-6.39-8.49h-.75c-3.76,0-6.16,3.46-6.16,8.12,0,4.89,2.48,8.34,6.69,8.34C575.31,222.92,577.87,219.61,577.87,215Zm4.21-20.37h-8.94v-8.27h8.94Zm33.07,33.22c0,6.92-1.73,11.88-5.26,15-3.23,2.93-8.49,4.36-15.71,4.36v-8.49q10.37,0,10.37-9.92v-28h10.6Zm27.21,0c0,6.92-1.73,11.88-5.26,15-3.23,2.93-8.49,4.36-15.71,4.36v-8.49q10.37,0,10.37-9.92v-28h10.6ZM641.61,195h-9.32v-8.64h9.32Zm21.87-8H650v-3.83H653a6.19,6.19,0,0,1-.3-2,5.72,5.72,0,0,1,5.64-6,5.13,5.13,0,0,1,5,3.53l-3.38,1.58c-.3-1.05-.83-1.58-1.65-1.58-1.13,0-1.73.75-1.73,2.25,0,1.13.38,1.88,1.05,2.1h5.86ZM688,222.4a11.63,11.63,0,0,1-3.68,8.94,13.23,13.23,0,0,1-9.25,3.38h-25V224.65h11.2l-9.47-33.3H663l9.32,33.3c3.53-.08,5.34-2.63,5.34-7.67V186.32H688Zm18.19,12.33H695.65V186.24h10.52Zm54.8,0H749.32c-1.73,8.27-8.49,12.4-20.44,12.4v-8.49q10.37,0,10.37-9.92v-28h10.6v24H761ZM766.46,195h-9.32v-8.64h9.32Zm26,39.76h-33.9V224.65h6.92c3.53,0,5.34-2.41,5.34-7.22V200.67h10.6v16.39a22.34,22.34,0,0,1-1.28,7.59h12.33ZM780.59,195h-9.32v-8.64h9.32Zm44.2,39.76H790.66V224.65h7.14c3.53,0,5.34-2.41,5.34-7.22V186.32h10.6v30.74a22.34,22.34,0,0,1-1.28,7.59h12.33Zm47.88,0h-6.09a55.94,55.94,0,0,1-18.79-2.78A55.94,55.94,0,0,1,829,234.72h-6.84V224.65H829c3.31,0,5.34-.23,6.16-.6a18.32,18.32,0,0,1-4.89-12.33,18.88,18.88,0,0,1,.9-5.71,17,17,0,0,1,16.61-11.88c8,0,14.28,4.59,16.61,11.88a18.88,18.88,0,0,1,.9,5.71A18.32,18.32,0,0,1,860.42,224c.9.38,2.93.6,6.16.6h6.09Zm-21.2-15.11a10,10,0,0,0,4.36-8.64c0-4.74-3-8.64-8-8.64a7.74,7.74,0,0,0-6,2.63,9.62,9.62,0,0,0-2,6,10,10,0,0,0,4.36,8.64,23.7,23.7,0,0,0,3.61,2.25A28.63,28.63,0,0,0,851.47,219.61Zm.83-32H843v-8.64h9.32Zm40,32.62a15.05,15.05,0,0,1-3.31,9.92c-2.48,3.08-5.94,4.59-10.37,4.59h-9.92V224.65h7.74c3.53,0,5.34-2.48,5.34-7.37v-31h10.52Zm18.19,14.51H900V186.24h10.52Z"/><g class="cls-17"><rect class="cls-37" x="408.01" y="213.43" width="108.2" height="8.51"/><rect class="cls-37" x="927.9" y="213.43" width="108.2" height="8.51"/></g></g></svg>