<svg width="21" height="21" viewBox="0 0 21 21" fill="none" xmlns="http://www.w3.org/2000/svg">
<path fill-rule="evenodd" clip-rule="evenodd" d="M10.5957 20.3491C16.0272 20.3491 20.4302 15.9839 20.4302 10.5991C20.4302 5.21435 16.0272 0.849121 10.5957 0.849121C5.16427 0.849121 0.7612 5.21435 0.7612 10.5991C0.7612 15.9839 5.16427 20.3491 10.5957 20.3491ZM4.00118 15.6296C2.91922 14.2372 2.27577 12.4927 2.27577 10.5991C2.27577 6.04277 6.00144 2.34912 10.5973 2.34912C15.1931 2.34912 18.9188 6.04277 18.9188 10.5991C18.9188 12.4924 18.2755 14.2368 17.1938 15.629C16.7002 15.1855 16.0695 14.8646 15.2396 14.5685C15.1152 14.5241 14.9877 14.4805 14.8286 14.4274L14.441 14.2988C13.4986 13.9836 13.1652 13.7833 13.0876 13.5299C13.085 13.5214 13.0808 13.5056 13.0749 13.4748C13.0414 13.2993 13.049 13.1073 13.1179 12.948C13.1586 12.8541 13.2205 12.7704 13.3134 12.6934C14.3585 11.7581 14.8854 10.7039 14.8854 9.26599C14.8854 6.76083 12.9083 4.84912 10.5985 4.84912C8.2729 4.84912 6.3117 6.72825 6.3117 9.26599C6.3117 10.6996 6.82486 11.723 7.8327 12.664C7.96238 12.7724 8.0275 12.8518 8.07178 12.9351C8.15751 13.0962 8.16848 13.283 8.13093 13.455C8.12824 13.4672 8.12601 13.4765 8.1246 13.4823C8.12291 13.4893 8.12243 13.4913 8.12382 13.4876C8.04917 13.7505 7.73995 13.9394 6.86856 14.2345L6.42215 14.3839C6.23595 14.4466 6.08793 14.498 5.94306 14.551C5.1261 14.8499 4.49492 15.1801 4.00118 15.6296ZM5.03156 16.7324C6.50593 18.0483 8.45727 18.8491 10.5973 18.8491C12.7374 18.8491 14.6889 18.0482 16.1633 16.7321C15.8332 16.4423 15.3758 16.2113 14.7272 15.9799C14.6143 15.9396 14.4961 15.8991 14.3462 15.8491L13.9574 15.7201C12.5499 15.2493 11.9163 14.8687 11.6437 13.9777C11.6264 13.9247 11.6065 13.8492 11.5884 13.7541C11.5036 13.3106 11.5227 12.8299 11.7274 12.3568C11.8605 12.0491 12.0651 11.7729 12.3211 11.5615C13.0421 10.9157 13.3724 10.2548 13.3724 9.26599C13.3724 7.59777 12.081 6.34912 10.5985 6.34912C9.09717 6.34912 7.8247 7.56835 7.8247 9.26599C7.8247 10.2538 8.14739 10.8974 8.83387 11.5404C9.08064 11.743 9.27267 11.9771 9.41003 12.2352C9.68478 12.7516 9.7161 13.2849 9.60968 13.7723C9.5879 13.8721 9.56394 13.9515 9.56386 13.9427C9.32564 14.8198 8.7096 15.1961 7.35762 15.654L6.90829 15.8044C6.73367 15.8631 6.59733 15.9105 6.46695 15.9582C5.82503 16.1931 5.36462 16.433 5.03156 16.7324Z" fill="white"/>
</svg>
