<svg width="38" height="39" viewBox="0 0 38 39" fill="none" xmlns="http://www.w3.org/2000/svg">
<path d="M5.38184 22.6157L29.7849 28.9847C31.403 29.407 33.1154 29.141 34.5455 28.2452C35.9757 27.3494 37.0064 25.8971 37.4109 24.208C37.8154 22.5188 37.5606 20.7311 36.7025 19.238C35.8444 17.745 34.4533 16.669 32.8353 16.2467L8.43222 9.87767C6.8142 9.45538 5.10175 9.72139 3.6716 10.6172C2.24146 11.513 1.21076 12.9653 0.806257 14.6544C0.401751 16.3436 0.656564 18.1314 1.51465 19.6244C2.37274 21.1174 3.76381 22.1934 5.38184 22.6157Z" fill="#4BC5D8"/>
<path d="M22.159 33.7615L28.2597 8.28541C28.6642 6.59624 28.4094 4.8085 27.5513 3.31547C26.6933 1.82244 25.3022 0.746424 23.6842 0.324132C22.0661 -0.0981605 20.3537 0.167857 18.9235 1.06367C17.4934 1.95949 16.4627 3.41173 16.0582 5.1009L9.95742 30.577C9.55291 32.2662 9.80772 34.0539 10.6658 35.5469C11.5239 37.04 12.915 38.116 14.533 38.5383C16.151 38.9606 17.8635 38.6945 19.2936 37.7987C20.7238 36.9029 21.7545 35.4507 22.159 33.7615Z" fill="#4BC5D8"/>
</svg>
