<svg width="75" height="113" viewBox="0 0 75 113" fill="none" xmlns="http://www.w3.org/2000/svg">
<path d="M-27.6757 79.3712C-33.752 75.7141 -35.7192 67.5632 -32.059 61.2097L-0.748396 6.8604C2.87727 0.566919 10.6616 -1.58883 16.6805 2.03374L68.2756 33.087C74.3518 36.7441 76.3191 44.8951 72.6588 51.2485L41.3483 105.598C37.7226 111.891 29.9383 114.047 23.9194 110.424L-27.6757 79.3712ZM21.942 26.3194C15.9185 22.7051 8.13675 24.8713 4.51884 31.1694L-8.89128 54.5141C-12.5437 60.8724 -10.5663 69.0206 -4.48526 72.6694L17.6128 85.929C23.6363 89.5433 31.4181 87.3772 35.036 81.079L48.4461 57.7344C52.0985 51.3761 50.1211 43.2278 44.0401 39.579L21.942 26.3194Z" fill="#40A0F0"/>
</svg>
